<svg width="1200" height="600" xmlns="http://www.w3.org/2000/svg">
  <defs>
    <linearGradient id="heroGradient" x1="0%" y1="0%" x2="100%" y2="100%">
      <stop offset="0%" style="stop-color:#1F2041;stop-opacity:1" />
      <stop offset="100%" style="stop-color:#4B5082;stop-opacity:1" />
    </linearGradient>
    <filter id="blur" x="-50%" y="-50%" width="200%" height="200%">
      <feGaussianBlur in="SourceGraphic" stdDeviation="20" />
    </filter>
  </defs>
  
  <!-- Background -->
  <rect width="1200" height="600" fill="url(#heroGradient)" />
  
  <!-- Abstract Elements -->
  <circle cx="200" cy="500" r="300" fill="#ffffff" opacity="0.05" filter="url(#blur)" />
  <circle cx="1000" cy="100" r="250" fill="#ffffff" opacity="0.05" filter="url(#blur)" />
  
  <!-- Grid Lines -->
  <g stroke="#ffffff" stroke-opacity="0.1" stroke-width="1">
    <line x1="0" y1="100" x2="1200" y2="100" />
    <line x1="0" y1="200" x2="1200" y2="200" />
    <line x1="0" y1="300" x2="1200" y2="300" />
    <line x1="0" y1="400" x2="1200" y2="400" />
    <line x1="0" y1="500" x2="1200" y2="500" />
    
    <line x1="100" y1="0" x2="100" y2="600" />
    <line x1="300" y1="0" x2="300" y2="600" />
    <line x1="500" y1="0" x2="500" y2="600" />
    <line x1="700" y1="0" x2="700" y2="600" />
    <line x1="900" y1="0" x2="900" y2="600" />
    <line x1="1100" y1="0" x2="1100" y2="600" />
  </g>
  
  <!-- Company Logo Elements -->
  <g transform="translate(600, 300)">
    <rect x="-100" y="-50" width="60" height="100" fill="#ffffff" rx="5" />
    <rect x="-30" y="-50" width="30" height="100" fill="#ffffff" rx="5" />
    <path d="M10,50 L60,-50 L110,50 Z" fill="#ffffff" />
  </g>
</svg>
